<svg xmlns="http://www.w3.org/2000/svg" viewBox="0 0 800 450" preserveAspectRatio="xMidYMid slice">
  <!-- Merienda de cumpleaños en el jardín -->
  <defs>
    <linearGradient id="sky2" x1="0" y1="0" x2="0" y2="1">
      <stop offset="0" stop-color="#F7F0DE"/>
      <stop offset="1" stop-color="#EFE2C2"/>
    </linearGradient>
  </defs>
  <rect width="800" height="450" fill="url(#sky2)"/>
  <!-- sol suave -->
  <circle cx="680" cy="84" r="44" fill="#E9B44C" opacity=".85"/>
  <!-- césped -->
  <path d="M0 300 Q 240 264 480 296 T 800 288 V450 H0 Z" fill="#6E8C6E"/>
  <path d="M0 356 Q 300 320 800 348 V450 H0 Z" fill="#5E7D62"/>
  <!-- árbol -->
  <g>
    <rect x="92" y="176" width="20" height="92" rx="8" fill="#8A6B45"/>
    <circle cx="102" cy="140" r="64" fill="#4E6B52"/>
    <circle cx="146" cy="168" r="42" fill="#5E7D62"/>
    <circle cx="62" cy="172" r="38" fill="#5E7D62"/>
    <g fill="#E9B44C"><circle cx="84" cy="128" r="6"/><circle cx="126" cy="150" r="6"/><circle cx="104" cy="176" r="6"/></g>
  </g>
  <!-- banderines -->
  <path d="M180 70 Q 400 120 620 64" stroke="#8A6B45" stroke-width="3" fill="none"/>
  <g>
    <path d="M234 84 l16 2 l-9 20 z" fill="#C75B33"/>
    <path d="M320 100 l16 1 l-8 20 z" fill="#E9B44C"/>
    <path d="M404 104 l16 0 l-8 20 z" fill="#C75B33"/>
    <path d="M488 96 l16 -2 l-7 21 z" fill="#E9B44C"/>
    <path d="M566 80 l15 -3 l-6 21 z" fill="#C75B33"/>
  </g>
  <!-- globos -->
  <g>
    <ellipse cx="712" cy="220" rx="20" ry="24" fill="#C75B33"/>
    <path d="M712 244 q4 10 -2 22" stroke="#8A6B45" stroke-width="2.5" fill="none"/>
    <ellipse cx="748" cy="196" rx="17" ry="21" fill="#E9B44C"/>
    <path d="M748 217 q-4 12 2 26" stroke="#8A6B45" stroke-width="2.5" fill="none"/>
  </g>
  <!-- mesa con tarta -->
  <g>
    <rect x="330" y="296" width="180" height="14" rx="7" fill="#8A6B45"/>
    <rect x="346" y="310" width="12" height="54" rx="5" fill="#6B5B3E"/>
    <rect x="482" y="310" width="12" height="54" rx="5" fill="#6B5B3E"/>
    <rect x="384" y="258" width="72" height="38" rx="8" fill="#F2E7CF"/>
    <path d="M384 268 q9 10 18 0 t18 0 t18 0 t18 0 v-10 h-72 z" fill="#C75B33"/>
    <rect x="416" y="238" width="5" height="16" rx="2.5" fill="#E9B44C"/>
    <circle cx="418.5" cy="234" r="5" fill="#C75B33"/>
  </g>
  <!-- abuela sentada -->
  <g>
    <circle cx="282" cy="266" r="17" fill="#E7C9A9"/>
    <path d="M265 262 a17 17 0 0 1 34 0 l-3 -1 a14 14 0 0 0 -28 0 z" fill="#DDD5C6"/>
    <circle cx="296" cy="252" r="7" fill="#DDD5C6"/>
    <path d="M266 282 h32 l6 46 h-44 z" fill="#56705E"/>
    <rect x="270" y="326" width="9" height="26" rx="4" fill="#E7C9A9"/>
    <rect x="288" y="326" width="9" height="26" rx="4" fill="#E7C9A9"/>
  </g>
  <!-- niño con regalo -->
  <g>
    <circle cx="580" cy="286" r="15" fill="#C98F63"/>
    <path d="M565 282 a15 15 0 0 1 30 0 l-5 -3 a11 11 0 0 0 -20 0 z" fill="#2B2118"/>
    <path d="M568 300 h24 l5 40 h-34 z" fill="#20362C"/>
    <rect x="560" y="316" width="26" height="20" rx="4" fill="#C75B33"/>
    <path d="M560 324 h26 M573 316 v20" stroke="#E9B44C" stroke-width="4"/>
    <rect x="570" y="340" width="8" height="24" rx="4" fill="#C98F63"/>
    <rect x="584" y="340" width="8" height="24" rx="4" fill="#C98F63"/>
  </g>
  <!-- niña pequeña corriendo -->
  <g>
    <circle cx="652" cy="316" r="13" fill="#E7C9A9"/>
    <path d="M639 312 a13 13 0 0 1 26 0 l-4 -2 a10 10 0 0 0 -18 0 z" fill="#5C4632"/>
    <path d="M642 328 h20 l5 32 h-30 z" fill="#E9B44C"/>
    <rect x="644" y="360" width="7" height="20" rx="3.5" fill="#E7C9A9" transform="rotate(10 647 370)"/>
    <rect x="658" y="360" width="7" height="20" rx="3.5" fill="#E7C9A9" transform="rotate(-10 661 370)"/>
  </g>
  <!-- flores -->
  <g fill="#E9B44C">
    <circle cx="60" cy="398" r="5"/><circle cx="150" cy="420" r="4"/><circle cx="230" cy="404" r="5"/>
  </g>
  <g fill="#C75B33">
    <circle cx="700" cy="420" r="5"/><circle cx="760" cy="396" r="4"/>
  </g>
</svg>
