<svg xmlns="http://www.w3.org/2000/svg" viewBox="0 0 500 420" preserveAspectRatio="xMidYMid slice">
  <!-- Atardecer en el banco: abuelo y nieta -->
  <defs>
    <linearGradient id="dusk" x1="0" y1="0" x2="0" y2="1">
      <stop offset="0" stop-color="#2E4A3C"/>
      <stop offset=".55" stop-color="#3E5C4B"/>
      <stop offset="1" stop-color="#56705E"/>
    </linearGradient>
  </defs>
  <rect width="500" height="420" fill="url(#dusk)"/>
  <!-- sol poniéndose -->
  <circle cx="368" cy="120" r="46" fill="#E9B44C"/>
  <circle cx="368" cy="120" r="64" fill="#E9B44C" opacity=".18"/>
  <!-- pájaros -->
  <g stroke="#F2E7CF" stroke-width="2.5" fill="none" stroke-linecap="round" opacity=".8">
    <path d="M120 92 q7 -7 14 0 M134 92 q7 -7 14 0"/>
    <path d="M180 120 q5 -5 10 0 M190 120 q5 -5 10 0"/>
  </g>
  <!-- suelo -->
  <path d="M0 320 Q 250 296 500 316 V420 H0 Z" fill="#20362C"/>
  <!-- árbol -->
  <g>
    <path d="M96 320 C 92 260 88 220 100 170" stroke="#1A2B21" stroke-width="18" fill="none" stroke-linecap="round"/>
    <circle cx="96" cy="140" r="66" fill="#1F3628"/>
    <circle cx="150" cy="168" r="44" fill="#28422F"/>
    <circle cx="52" cy="176" r="40" fill="#28422F"/>
    <g fill="#E9B44C" opacity=".9"><circle cx="76" cy="128" r="5"/><circle cx="120" cy="152" r="5"/><circle cx="96" cy="178" r="5"/></g>
  </g>
  <!-- farola cálida -->
  <g>
    <rect x="440" y="196" width="7" height="128" rx="3.5" fill="#1A2B21"/>
    <circle cx="443" cy="188" r="13" fill="#E9B44C"/>
    <circle cx="443" cy="188" r="24" fill="#E9B44C" opacity=".18"/>
  </g>
  <!-- banco -->
  <g fill="#8A6B45">
    <rect x="180" y="286" width="204" height="12" rx="6"/>
    <rect x="188" y="252" width="188" height="10" rx="5"/>
    <rect x="188" y="236" width="188" height="10" rx="5"/>
    <rect x="192" y="298" width="10" height="52" rx="5"/>
    <rect x="362" y="298" width="10" height="52" rx="5"/>
  </g>
  <!-- abuelo -->
  <g>
    <circle cx="252" cy="204" r="22" fill="#E7C9A9"/>
    <path d="M230 200 a22 22 0 0 1 44 0 l-4 -2 a18 18 0 0 0 -36 0 z" fill="#DDD5C6"/>
    <path d="M232 226 h40 l8 62 h-56 z" fill="#6B5B3E"/>
    <rect x="238" y="286" width="12" height="46" rx="6" fill="#4E5D52"/>
    <rect x="258" y="286" width="12" height="46" rx="6" fill="#4E5D52"/>
    <rect x="236" y="330" width="18" height="9" rx="4.5" fill="#2B2118"/>
    <rect x="256" y="330" width="18" height="9" rx="4.5" fill="#2B2118"/>
    <!-- brazo sobre la nieta -->
    <path d="M272 238 q26 8 40 26" stroke="#6B5B3E" stroke-width="12" fill="none" stroke-linecap="round"/>
  </g>
  <!-- nieta -->
  <g>
    <circle cx="322" cy="234" r="16" fill="#C98F63"/>
    <path d="M306 230 a16 16 0 0 1 32 0 l-4 -2 a12 12 0 0 0 -24 0 z" fill="#2B2118"/>
    <circle cx="334" cy="222" r="6" fill="#2B2118"/>
    <path d="M308 250 h28 l6 38 h-40 z" fill="#C75B33"/>
    <rect x="312" y="288" width="9" height="34" rx="4.5" fill="#C98F63"/>
    <rect x="328" y="288" width="9" height="34" rx="4.5" fill="#C98F63"/>
    <rect x="310" y="318" width="14" height="8" rx="4" fill="#E9B44C"/>
    <rect x="326" y="318" width="14" height="8" rx="4" fill="#E9B44C"/>
  </g>
  <!-- gato -->
  <g fill="#2B2118">
    <ellipse cx="422" cy="342" rx="20" ry="11"/>
    <circle cx="438" cy="330" r="8"/>
    <path d="M433 324 l3 -7 l4 6 z M440 323 l3 -6 l3 7 z"/>
    <path d="M402 340 q-10 -2 -8 -12" stroke="#2B2118" stroke-width="5" fill="none" stroke-linecap="round"/>
  </g>
  <!-- luciérnagas -->
  <g fill="#E9B44C">
    <circle cx="160" cy="250" r="3" opacity=".9"/>
    <circle cx="210" cy="180" r="2.5" opacity=".7"/>
    <circle cx="410" cy="250" r="2.5" opacity=".8"/>
    <circle cx="70" cy="300" r="2.5" opacity=".7"/>
  </g>
</svg>
